<svg width="23" height="24" viewBox="0 0 23 24" fill="none" xmlns="http://www.w3.org/2000/svg">
<path d="M11.5 2.16221C14.5706 2.16221 14.9343 2.1744 16.1469 2.23213C17.2682 2.28553 17.8771 2.48102 18.2824 2.64531C18.8191 2.863 19.2023 3.12308 19.6046 3.54297C20.007 3.96287 20.2563 4.36266 20.4649 4.92274C20.6224 5.34564 20.8097 5.98103 20.8609 7.15097C20.9162 8.41637 20.9279 8.79587 20.9279 12C20.9279 15.2042 20.9162 15.5837 20.8609 16.849C20.8097 18.019 20.6224 18.6544 20.4649 19.0773C20.2563 19.6374 20.007 20.0372 19.6046 20.4571C19.2023 20.877 18.8191 21.137 18.2824 21.3547C17.8771 21.519 17.2682 21.7145 16.1469 21.7679C14.9345 21.8256 14.5708 21.8378 11.5 21.8378C8.42915 21.8378 8.06546 21.8256 6.85301 21.7679C5.73177 21.7145 5.12286 21.519 4.71763 21.3547C4.18084 21.137 3.7977 20.877 3.39531 20.4571C2.99291 20.0372 2.74366 19.6374 2.53509 19.0773C2.3776 18.6544 2.19025 18.019 2.13908 16.8491C2.08375 15.5837 2.07207 15.2042 2.07207 12C2.07207 8.79587 2.08375 8.41637 2.13908 7.15102C2.19025 5.98103 2.3776 5.34564 2.53509 4.92274C2.74366 4.36266 2.99291 3.96287 3.39531 3.54297C3.7977 3.12308 4.18084 2.863 4.71763 2.64531C5.12286 2.48102 5.73177 2.28553 6.85297 2.23213C8.06564 2.1744 8.42933 2.16221 11.5 2.16221ZM11.5 0C8.37674 0 7.98516 0.0138139 6.75856 0.0722133C5.53448 0.130517 4.69855 0.333343 3.96702 0.630008C3.21079 0.936676 2.56946 1.347 1.93014 2.01411C1.29083 2.68123 0.897603 3.35044 0.603712 4.13954C0.319408 4.90288 0.125033 5.77516 0.0691587 7.05246C0.0131927 8.33234 0 8.741 0 12C0 15.2591 0.0131927 15.6677 0.0691587 16.9476C0.125033 18.2249 0.319408 19.0972 0.603712 19.8605C0.897603 20.6496 1.29083 21.3188 1.93014 21.9859C2.56946 22.6531 3.21079 23.0634 3.96702 23.37C4.69855 23.6667 5.53448 23.8695 6.75856 23.9278C7.98516 23.9862 8.37674 24 11.5 24C14.6232 24 15.0148 23.9862 16.2414 23.9278C17.4655 23.8695 18.3014 23.6667 19.0329 23.37C19.7892 23.0634 20.4305 22.6531 21.0698 21.9859C21.7091 21.3188 22.1024 20.6496 22.3962 19.8605C22.6805 19.0972 22.8749 18.2249 22.9308 16.9476C22.9868 15.6677 23 15.2591 23 12C23 8.741 22.9868 8.33234 22.9308 7.05246C22.8749 5.77516 22.6805 4.90288 22.3962 4.13954C22.1024 3.35044 21.7091 2.68123 21.0698 2.01411C20.4305 1.347 19.7892 0.936676 19.0329 0.630008C18.3014 0.333343 17.4655 0.130517 16.2414 0.0722133C15.0148 0.0138139 14.6232 0 11.5 0ZM11.5 5.83784C8.23852 5.83784 5.59455 8.59676 5.59455 12C5.59455 15.4033 8.23852 18.1622 11.5 18.1622C14.7614 18.1622 17.4054 15.4033 17.4054 12C17.4054 8.59676 14.7614 5.83784 11.5 5.83784ZM11.5 16C9.3829 16 7.66662 14.2091 7.66662 12C7.66662 9.7909 9.3829 8 11.5 8C13.6171 8 15.3333 9.7909 15.3333 12C15.3333 14.2091 13.6171 16 11.5 16ZM19.0187 5.59438C19.0187 6.38968 18.4009 7.03441 17.6387 7.03441C16.8766 7.03441 16.2587 6.38968 16.2587 5.59438C16.2587 4.79909 16.8766 4.15441 17.6387 4.15441C18.4009 4.15441 19.0187 4.79909 19.0187 5.59438Z" fill="#81A1B7"/>
</svg>
